HIERARCHY
ROOT Pelvis
{
	OFFSET 0.000000 0.941512 0.000000
	CHANNELS 6 Xposition Yposition Zposition Zrotation Yrotation Xrotation 
	JOINT Pelvis_L_Hip
	{
		OFFSET 0.000000 0.000000 0.000000
		CHANNELS 3 Zrotation Yrotation Xrotation
		JOINT L_Hip
		{
			OFFSET 0.062321 -0.080322 -0.016990
			CHANNELS 3 Zrotation Yrotation Xrotation
			JOINT L_Knee
			{
				OFFSET 0.093051 -0.381305 -0.029784
				CHANNELS 3 Zrotation Yrotation Xrotation
				JOINT L_Ankle
				{
					OFFSET -0.010371 -0.431000 -0.033614
					CHANNELS 3 Zrotation Yrotation Xrotation
					End Site #name: L_Foot
					{
						OFFSET 0.069299 -0.038670 0.119418
					}
				}
			}
		}
	}
	JOINT Pelvis_R_Hip
	{
		OFFSET 0.000000 0.000000 0.000000
		CHANNELS 3 Zrotation Yrotation Xrotation
		JOINT R_Hip
		{
			OFFSET -0.055334 -0.094904 -0.002373
			CHANNELS 3 Zrotation Yrotation Xrotation
			JOINT R_Knee
			{
				OFFSET -0.064207 -0.384370 -0.019592
				CHANNELS 3 Zrotation Yrotation Xrotation
				JOINT R_Ankle
				{
					OFFSET 0.025418 -0.419734 -0.065953
					CHANNELS 3 Zrotation Yrotation Xrotation
					End Site #name: R_Foot
					{
						OFFSET -0.057233 -0.039888 0.132134
					}
				}
			}
		}
	}
	JOINT Pelvis_Spine1
	{
		OFFSET 0.000000 0.000000 0.000000
		CHANNELS 3 Zrotation Yrotation Xrotation
		JOINT Spine1
		{
			OFFSET -0.005562 0.124093 -0.043360
			CHANNELS 3 Zrotation Yrotation Xrotation
			JOINT Spine2
			{
				OFFSET 0.012244 0.139499 0.029894
				CHANNELS 3 Zrotation Yrotation Xrotation
				JOINT Spine3
				{
					OFFSET -0.002556 0.056561 0.009225
					CHANNELS 3 Zrotation Yrotation Xrotation
					JOINT Spine3_Neck
					{
						OFFSET 0.000000 0.000000 0.000000
						CHANNELS 3 Zrotation Yrotation Xrotation
						JOINT Neck
						{
							OFFSET -0.005205 0.217920 -0.024551
							CHANNELS 3 Zrotation Yrotation Xrotation
							End Site #name: Head
							{
								OFFSET 0.002365 0.091850 0.046637
							}
						}
					}
					JOINT Spine3_L_Collar
					{
						OFFSET 0.000000 0.000000 0.000000
						CHANNELS 3 Zrotation Yrotation Xrotation
						JOINT L_Collar
						{
							OFFSET 0.072225 0.116603 -0.009480
							CHANNELS 3 Zrotation Yrotation Xrotation
							JOINT L_Shoulder
							{
								OFFSET 0.115937 -0.058643 -0.021018
								CHANNELS 3 Zrotation Yrotation Xrotation
								JOINT L_Elbow
								{
									OFFSET 0.021994 -0.254722 -0.024492
									CHANNELS 3 Zrotation Yrotation Xrotation
									End Site #name: L_Wrist
									{
										OFFSET 0.048810 -0.240214 0.103329
									}
								}
							}
						}
					}
					JOINT Spine3_R_Collar
					{
						OFFSET 0.000000 0.000000 0.000000
						CHANNELS 3 Zrotation Yrotation Xrotation
						JOINT R_Collar
						{
							OFFSET -0.073372 0.120704 -0.024611
							CHANNELS 3 Zrotation Yrotation Xrotation
							JOINT R_Shoulder
							{
								OFFSET -0.108089 -0.054969 -0.020504
								CHANNELS 3 Zrotation Yrotation Xrotation
								JOINT R_Elbow
								{
									OFFSET -0.033684 -0.260739 0.009889
									CHANNELS 3 Zrotation Yrotation Xrotation
									End Site #name: R_Wrist
									{
										OFFSET -0.067980 -0.232763 0.118463
									}
								}
							}
						}
					}
				}
			}
		}
	}
}
MOTION
Frames: 14
Frame Time: 0.041667
-0.058805 0.945308 0.039874 0.367112 2.833757 -2.379200 0.000000 0.000000 0.000000 5.401309 -1.400310 -5.067501 -1.306479 -0.175775 16.166457 1.285538 1.162049 -1.534639 0.000000 0.000000 0.000000 0.971069 -0.264868 1.251658 1.220092 -0.182966 0.262785 0.923682 4.411690 -0.844864 0.000000 0.000000 0.000000 1.494539 -0.598375 2.699619 1.883797 -0.307807 0.119563 0.523061 1.251642 3.924265 0.000000 0.000000 0.000000 -0.435233 0.199339 0.824778 0.000000 0.000000 0.000000 -1.436653 5.105458 2.209127 3.305280 -0.116699 3.366211 1.515510 -0.189628 -4.391110 0.000000 0.000000 0.000000 -0.257476 -2.603083 1.357015 -9.532657 -0.215643 -1.359378 -0.031818 0.536425 -1.906967 
-0.054625 0.944626 0.034490 0.188715 4.088368 -2.181863 0.000000 0.000000 0.000000 5.145351 -0.863584 -2.329080 -0.884319 -0.135489 10.043325 0.788232 0.652567 -0.953872 0.000000 0.000000 0.000000 1.017160 -0.188985 0.809988 1.323081 -0.191128 0.496630 0.700756 3.426694 -0.719051 0.000000 0.000000 0.000000 1.152484 -0.381936 1.355178 1.823345 -0.275353 0.940472 0.462893 1.145715 3.718597 0.000000 0.000000 0.000000 0.009912 -0.029990 0.678321 0.000000 0.000000 0.000000 -1.208322 4.541108 1.992173 2.583931 -0.047367 2.974108 0.961712 -0.530438 -4.757995 0.000000 0.000000 0.000000 -0.118701 -3.176695 1.611323 -8.821819 -0.203964 -0.796339 -0.902161 -0.366627 -0.334364 
-0.049617 0.944730 0.028867 0.131267 5.126381 -1.930597 0.000000 0.000000 0.000000 4.726020 -0.624646 -1.213090 -0.541689 -0.098081 6.233447 0.463091 0.202830 -0.648053 0.000000 0.000000 0.000000 0.924803 -0.087432 0.265949 1.245988 -0.172571 0.660466 0.563060 2.608401 -0.494743 0.000000 0.000000 0.000000 0.565083 -0.148119 0.299544 1.854386 -0.269620 1.377666 0.406067 1.071248 3.692259 0.000000 0.000000 0.000000 0.392832 -0.213731 0.308107 0.000000 0.000000 0.000000 -0.973670 3.988569 1.779308 2.092747 -0.046939 2.084127 0.626197 -0.671116 -4.644880 0.000000 0.000000 0.000000 0.162509 -3.829328 1.873717 -8.173372 -0.194611 -0.378204 -1.451753 -0.894845 0.579386 
-0.044181 0.945407 0.022822 0.173092 5.653413 -1.695135 0.000000 0.000000 0.000000 4.296444 -0.623489 -1.339477 -0.413653 -0.081766 4.906514 0.342165 -0.092113 -0.603546 0.000000 0.000000 0.000000 0.712222 0.026357 -0.325133 1.000843 -0.128853 0.723555 0.582036 2.127934 -0.117575 0.000000 0.000000 0.000000 -0.080350 0.040220 -0.258502 1.836214 -0.266357 1.401321 0.356603 1.137287 3.832073 0.000000 0.000000 0.000000 0.539984 -0.260668 -0.289109 0.000000 0.000000 0.000000 -0.664222 3.554628 1.641059 1.790720 -0.097904 0.888189 0.420515 -0.735468 -4.474997 0.000000 0.000000 0.000000 0.346169 -4.159098 1.995809 -7.190552 -0.181391 -0.005490 -2.022191 -1.243357 0.820684 
-0.038261 0.946057 0.016917 0.188717 5.557464 -1.604477 0.000000 0.000000 0.000000 3.946002 -0.643622 -1.559619 -0.493468 -0.061922 4.466464 0.333673 -0.078091 -0.582968 0.000000 0.000000 0.000000 0.421799 0.120766 -0.804498 0.745830 -0.086122 0.706206 0.742538 2.078172 0.300283 0.000000 0.000000 0.000000 -0.461660 0.126810 -0.350998 1.676261 -0.242255 1.238127 0.277377 1.294966 3.998192 0.000000 0.000000 0.000000 0.435157 -0.178054 -0.894828 0.000000 0.000000 0.000000 -0.488030 3.293504 1.553899 1.892646 -0.184585 -0.199474 0.181154 -0.862869 -4.537143 0.000000 0.000000 0.000000 0.403751 -3.993713 1.902694 -6.084520 -0.173937 0.321192 -2.460473 -1.385646 0.527704 
-0.031827 0.946360 0.011851 0.117887 5.009430 -1.665079 0.000000 0.000000 0.000000 3.642914 -0.567652 -1.306379 -0.642310 -0.029795 3.795791 0.382943 0.250482 -0.492098 0.000000 0.000000 0.000000 0.119513 0.186985 -1.132770 0.544177 -0.052466 0.683225 0.985490 2.364390 0.668241 0.000000 0.000000 0.000000 -0.572572 0.141019 -0.256223 1.465599 -0.208095 1.111004 0.183113 1.368328 4.103354 0.000000 0.000000 0.000000 0.224211 -0.053493 -1.335893 0.000000 0.000000 0.000000 -0.490482 3.123356 1.467034 2.306678 -0.269203 -0.896084 -0.115196 -1.043308 -4.722210 0.000000 0.000000 0.000000 0.502180 -3.583448 1.682839 -5.347317 -0.162574 0.364349 -2.479281 -1.233744 -0.097454 
-0.025181 0.946419 0.007830 -0.003058 4.313156 -1.774836 0.000000 0.000000 0.000000 3.337719 -0.449914 -0.863458 -0.761556 -0.000958 3.035337 0.468452 0.716714 -0.385570 0.000000 0.000000 0.000000 -0.150306 0.240925 -1.404439 0.355265 -0.018051 0.718354 1.240224 2.759410 0.975509 0.000000 0.000000 0.000000 -0.647100 0.150816 -0.192636 1.369457 -0.192770 1.040355 0.111369 1.238227 4.152994 0.000000 0.000000 0.000000 0.054785 0.039756 -1.633109 0.000000 0.000000 0.000000 -0.483491 2.858809 1.334988 2.681644 -0.323246 -1.209947 -0.386440 -1.158677 -4.662633 0.000000 0.000000 0.000000 0.747318 -3.314965 1.502775 -5.105511 -0.130914 -0.017548 -2.149894 -0.834271 -0.978525 
-0.018691 0.946402 0.004599 -0.134920 3.695619 -1.845901 0.000000 0.000000 0.000000 3.054924 -0.377249 -0.630653 -0.876827 0.019151 2.609089 0.572304 1.173266 -0.311807 0.000000 0.000000 0.000000 -0.386912 0.294620 -1.687591 0.167594 0.017499 0.781031 1.465201 3.072956 1.262896 0.000000 0.000000 0.000000 -0.805875 0.182134 -0.174137 1.437911 -0.207782 0.931633 0.056795 0.942030 4.174409 0.000000 0.000000 0.000000 -0.021394 0.082983 -1.905308 0.000000 0.000000 0.000000 -0.342191 2.381488 1.127693 2.877474 -0.348940 -1.306471 -0.607067 -1.152113 -4.158725 0.000000 0.000000 0.000000 1.058840 -3.336549 1.449148 -5.071334 -0.086030 -0.628263 -1.756954 -0.305433 -2.177418 
-0.012471 0.946329 0.001942 -0.272270 3.230272 -1.856635 0.000000 0.000000 0.000000 2.826194 -0.360501 -0.638092 -1.015870 0.035336 2.481146 0.669663 1.593121 -0.244736 0.000000 0.000000 0.000000 -0.608875 0.346279 -1.966711 0.012722 0.044735 0.797628 1.653607 3.250692 1.557108 0.000000 0.000000 0.000000 -0.980222 0.216906 -0.156013 1.583419 -0.238243 0.754918 -0.010360 0.607349 4.193174 0.000000 0.000000 0.000000 -0.007027 0.081739 -2.211627 0.000000 0.000000 0.000000 -0.151706 1.768926 0.861652 3.061616 -0.372411 -1.387251 -0.786656 -1.058647 -3.350435 0.000000 0.000000 0.000000 1.313487 -3.539875 1.493117 -4.999228 -0.046414 -1.143574 -1.420333 0.289822 -3.667888 
-0.006526 0.946194 -0.000086 -0.406438 2.893271 -1.834936 0.000000 0.000000 0.000000 2.631565 -0.364115 -0.723590 -1.154556 0.049809 2.436528 0.750332 1.987036 -0.161519 0.000000 0.000000 0.000000 -0.825630 0.389445 -2.199427 -0.111021 0.063776 0.766851 1.812836 3.341246 1.843792 0.000000 0.000000 0.000000 -1.097978 0.240842 -0.146852 1.706488 -0.264479 0.576652 -0.088563 0.339370 4.224811 0.000000 0.000000 0.000000 0.073241 0.048539 -2.519273 0.000000 0.000000 0.000000 -0.030292 1.215445 0.608055 3.346997 -0.411612 -1.610090 -0.859498 -0.915084 -2.538961 0.000000 0.000000 0.000000 1.477993 -3.761809 1.563619 -4.875134 -0.023483 -1.406010 -1.086014 0.905419 -5.168948 
-0.000977 0.946023 -0.001342 -0.516892 2.637164 -1.837323 0.000000 0.000000 0.000000 2.437332 -0.357336 -0.759235 -1.270692 0.061781 2.404185 0.824905 2.342774 -0.087437 0.000000 0.000000 0.000000 -1.043605 0.416590 -2.335987 -0.220248 0.079309 0.721348 1.963052 3.419931 2.117182 0.000000 0.000000 0.000000 -1.170437 0.255794 -0.143310 1.770229 -0.278954 0.444021 -0.146257 0.177456 4.274712 0.000000 0.000000 0.000000 0.180101 0.001922 -2.777083 0.000000 0.000000 0.000000 0.015170 0.843673 0.429315 3.632831 -0.457595 -1.989307 -0.716358 -0.723336 -1.953510 0.000000 0.000000 0.000000 1.584662 -3.898634 1.605068 -4.747922 -0.016131 -1.458284 -0.764206 1.407248 -6.247807 
0.004039 0.945812 -0.001817 -0.591496 2.421283 -1.900212 0.000000 0.000000 0.000000 2.239358 -0.327446 -0.691173 -1.373572 0.072406 2.374127 0.902209 2.641933 -0.049206 0.000000 0.000000 0.000000 -1.278630 0.420489 -2.325095 -0.301121 0.087349 0.633412 2.126493 3.536807 2.392003 0.000000 0.000000 0.000000 -1.217745 0.265056 -0.135835 1.779639 -0.282594 0.366730 -0.172415 0.108055 4.336173 0.000000 0.000000 0.000000 0.257699 -0.032250 -2.946981 0.000000 0.000000 0.000000 0.026398 0.638372 0.327608 3.819064 -0.496974 -2.430632 -0.415746 -0.521679 -1.642655 0.000000 0.000000 0.000000 1.668772 -3.904522 1.588450 -4.622998 -0.016209 -1.411484 -0.541048 1.637237 -6.578270 
0.008515 0.945552 -0.001641 -0.631653 2.219580 -2.006691 0.000000 0.000000 0.000000 2.031063 -0.271577 -0.511326 -1.457768 0.081591 2.311603 0.994946 2.871342 -0.077443 0.000000 0.000000 0.000000 -1.541224 0.404864 -2.183133 -0.336092 0.084159 0.489454 2.299903 3.697715 2.655597 0.000000 0.000000 0.000000 -1.224247 0.269071 -0.170369 1.751112 -0.277221 0.376873 -0.197846 0.090141 4.383407 0.000000 0.000000 0.000000 0.274135 -0.039926 -3.005086 0.000000 0.000000 0.000000 0.020878 0.521189 0.267140 3.920770 -0.524479 -2.796567 -0.178163 -0.400741 -1.575042 0.000000 0.000000 0.000000 1.747085 -3.791491 1.516118 -4.488616 -0.016831 -1.349551 -0.463012 1.542657 -6.107618 
0.012450 0.945341 -0.000982 -0.616204 2.025736 -2.139168 0.000000 0.000000 0.000000 1.772018 -0.186308 -0.221015 -1.528835 0.089949 2.205208 1.139554 3.028902 -0.238093 0.000000 0.000000 0.000000 -1.846150 0.377939 -1.955417 -0.337574 0.074295 0.328074 2.472797 3.894364 2.890464 0.000000 0.000000 0.000000 -1.229263 0.279240 -0.288309 1.712584 -0.265935 0.527871 -0.245353 0.076808 4.374043 0.000000 0.000000 0.000000 0.251436 -0.032237 -2.949578 0.000000 0.000000 0.000000 -0.023225 0.449117 0.221893 4.017569 -0.544388 -3.035131 -0.189676 -0.427991 -1.682233 0.000000 0.000000 0.000000 1.843521 -3.645889 1.424315 -4.353354 -0.017371 -1.291566 -0.507847 1.217103 -5.097474 
